<?xml version="1.0" encoding="UTF-8" standalone="no"?>
<svg
   xmlns:dc="http://purl.org/dc/elements/1.1/"
   xmlns:cc="http://creativecommons.org/ns#"
   xmlns:rdf="http://www.w3.org/1999/02/22-rdf-syntax-ns#"
   xmlns:svg="http://www.w3.org/2000/svg"
   xmlns="http://www.w3.org/2000/svg"
   xmlns:sodipodi="http://sodipodi.sourceforge.net/DTD/sodipodi-0.dtd"
   xmlns:inkscape="http://www.inkscape.org/namespaces/inkscape"
   viewBox="0 0 491.33744 491.28836"
   height="490.87619"
   width="490.92523"
   version="1.1"
   id="svg3807"
   sodipodi:docname="eoc.svg"
   inkscape:version="0.92.3 (2405546, 2018-03-11)">
  <metadata
     id="metadata3811">
    <rdf:RDF>
      <cc:Work
         rdf:about="">
        <dc:format>image/svg+xml</dc:format>
        <dc:type
           rdf:resource="http://purl.org/dc/dcmitype/StillImage" />
        <dc:title></dc:title>
      </cc:Work>
    </rdf:RDF>
  </metadata>
  <sodipodi:namedview
     pagecolor="#ffffff"
     bordercolor="#666666"
     borderopacity="1"
     objecttolerance="10"
     gridtolerance="10"
     guidetolerance="10"
     inkscape:pageopacity="0"
     inkscape:pageshadow="2"
     inkscape:window-width="1853"
     inkscape:window-height="1025"
     id="namedview3809"
     showgrid="false"
     inkscape:zoom="0.38294196"
     inkscape:cx="-233.58231"
     inkscape:cy="312.30568"
     inkscape:window-x="67"
     inkscape:window-y="27"
     inkscape:window-maximized="1"
     inkscape:current-layer="svg3807" />
  <defs
     id="defs3791">
    <clipPath
       id="a">
      <path
         d="M 0.06,0 H 595.275 V 595.281 H 0.06 Z"
         id="path3782"
         inkscape:connector-curvature="0" />
    </clipPath>
    <clipPath
       id="b">
      <path
         d="M 0,0 H 596 V 596 H 0 Z"
         id="path3785"
         inkscape:connector-curvature="0" />
    </clipPath>
    <clipPath
       id="c">
      <path
         d="M 113.386,113.388 H 481.89 V 481.892 H 113.386 Z"
         id="path3788"
         inkscape:connector-curvature="0" />
    </clipPath>
  </defs>
  <g
     clip-path="url(#a)"
     transform="matrix(0.82613933,0,0,-0.82574086,-0.53345538,491.08452)"
     id="g3795">
    <path
       d="M 0.06,0 H 595.275 V 595.281 H 0.06 Z"
       id="path3793"
       inkscape:connector-curvature="0"
       style="fill:#ffffff" />
  </g>
  <g
     clip-path="url(#b)"
     transform="matrix(1.33333,0,0,-1.33333,-151.18096,642.47198)"
     id="g3799">
    <path
       d="m 243.887,287.728 a 76.957,76.957 0 0 1 -13.35,-0.824 c -3.4,-0.524 -6.82,-1.938 -9.039,-4.661 -2.49,-3.071 -3.4,-7.843 -3.704,-11.426 a 180.755,180.755 0 0 1 -0.671,-19.289 c -0.142,-6.791 0.13,-13.583 0.811,-20.342 0.546,-4.845 2.11,-10.182 6.56,-12.85 0.7,-0.397 1.44,-0.739 2.207,-1 5.455,-1.868 11.52,-1.882 17.186,-1.833 a 76.053,76.053 0 0 1 13.343,0.811 c 3.394,0.519 6.81,1.926 9.029,4.643 2.483,3.055 3.393,7.809 3.697,11.375 0.566,6.379 0.787,12.795 0.668,19.196 a 169.548,169.548 0 0 1 -0.808,20.442 c -0.543,4.856 -2.092,10.217 -6.545,12.902 -0.7,0.397 -1.439,0.744 -2.208,1.007 -5.451,1.872 -11.509,1.884 -17.176,1.838 v 0.011"
       id="path3797"
       inkscape:connector-curvature="0"
       style="fill:#2e3192" />
  </g>
  <g
     clip-path="url(#c)"
     transform="matrix(1.33333,0,0,-1.33333,-151.18096,642.47198)"
     id="g3805"
     style="fill:#2e3192">
    <path
       d="m 153.173,287.728 a 65.926,65.926 0 0 1 -13.902,-1.137 c -4.132,-0.782 -8.095,-2.971 -10.181,-6.747 a 14.435,14.435 0 0 1 -0.972,-2.323 38.08,38.08 0 0 1 -1.677,-9.056 214.527,214.527 0 0 1 -0.551,-8.642 h 52.449 a 104.385,104.385 0 0 1 -1.247,15.464 c -0.655,4.016 -2.351,8.249 -6.135,10.27 a 11.84,11.84 0 0 1 -1.751,0.71 28.475,28.475 0 0 1 -7.629,1.276 c -2.798,0.15 -5.603,0.21 -8.404,0.185"
       id="path3801"
       inkscape:connector-curvature="0" />
    <path
       d="m 298.09,481.848 c -67.279,0.265 -131.143,-37.885 -163.01,-97.291 -16.919,-31.851 -24.329,-68.678 -20.867,-104.72 4.469,17.389 23.65,20.484 39.137,20.055 14.221,0.243 32.565,-1.645 37.259,-17.928 2.096,-7.686 2.596,-15.571 2.59,-23.514 l -0.019,-9.382 h -67.238 c -0.146,-8.933 -0.303,-18.369 3.384,-26.664 4.99,-7.407 16.318,-6.465 23.992,-6.414 6.547,-0.161 14.119,-0.533 20.12,2.355 5.836,2.813 5.339,9.96 5.339,15.456 l 14.403,0.01 v -3.373 c 0.3,-9.387 -3.478,-18.983 -13.008,-22.604 -12.991,-4.8 -28.603,-4.006 -41.986,-2.113 32.506,-56.666 94.726,-92.45 160.007,-92.337 67.171,-0.121 131.04,38.029 162.909,97.435 14.078,26.575 21.661,56.658 21.708,86.87 0.053,67.279 -38.29,131.032 -97.789,162.721 -26.618,13.997 -56.72,21.489 -86.934,21.445 z m 77.925,-247.702 c 0.232,-7.885 -1.82,-16.552 -7.848,-22.035 -6.097,-5.525 -15.838,-7.138 -23.415,-7.35 -9.681,-0.53 -19.756,-0.285 -29.104,1.997 -6.68,1.605 -12.593,5.688 -15.947,11.758 a 27.065,27.065 0 0 0 -2.384,6.223 c -2.357,9.607 -2.449,19.456 -2.423,29.29 a 104.282,104.282 0 0 0 1.915,22.602 c 1.296,6.471 4.669,12.712 10.027,16.686 7.502,5.532 18.571,6.658 27.204,6.445 a 98.891,98.891 0 0 0 19.791,-1.457 c 7.514,-1.294 14.609,-5.542 17.941,-12.623 2.05,-4.464 2.7,-10.2 2.637,-14.823 l 0.005,-2.483 H 360.35 v 2.849 c 0.119,5.298 -0.971,11.533 -5.878,14.511 -5.673,3.119 -13.646,2.83 -19.544,2.671 a 52.035,52.035 0 0 1 -12.203,-1.111 c -5.266,-1.068 -9.677,-4.712 -11.213,-9.96 a 46.156,46.156 0 0 1 -1.727,-11.151 282.314,282.314 0 0 1 -0.294,-16.069 c -0.129,-5.837 0.114,-11.667 0.733,-17.47 0.666,-6.018 3.462,-12.112 9.514,-14.374 5.784,-2.144 12.097,-2.411 18.219,-2.374 4.103,-0.109 8.203,0.14 12.26,0.734 4.522,0.659 8.887,3.142 10.396,7.711 a 27.168,27.168 0 0 1 1.307,7.933 l 0.049,2.415 v 4.605 h 14.046 z M 244.406,204.54 a 91.7,91.7 0 0 0 -20.447,1.75 c -6.187,1.231 -11.903,4.632 -15.317,10.031 a 24.139,24.139 0 0 0 -2.511,5.584 c -2.96,9.776 -3.205,20.035 -3.17,30.171 a 131.672,131.672 0 0 0 1.735,24.807 c 1.209,7.24 4.734,14.402 11.275,18.204 a 23.09,23.09 0 0 0 4.18,1.821 c 7.838,2.541 16.077,2.894 24.257,2.864 a 91.298,91.298 0 0 0 20.434,-1.753 c 6.194,-1.238 11.907,-4.653 15.314,-10.064 a 24.227,24.227 0 0 0 2.511,-5.601 c 2.959,-9.814 3.202,-20.104 3.168,-30.278 a 130.88,130.88 0 0 0 -1.736,-24.717 c -1.21,-7.224 -4.741,-14.362 -11.272,-18.149 a 23.44,23.44 0 0 0 -4.178,-1.814 c -7.838,-2.534 -16.067,-2.884 -24.246,-2.856 h 0.003"
       id="path3803"
       inkscape:connector-curvature="0" />
  </g>
</svg>
