<?xml version="1.0" encoding="UTF-8" standalone="no"?>
<!DOCTYPE svg PUBLIC "-//W3C//DTD SVG 1.1//EN" "http://www.w3.org/Graphics/SVG/1.1/DTD/svg11.dtd">
<svg version="1.1" xmlns="http://www.w3.org/2000/svg" xmlns:xlink="http://www.w3.org/1999/xlink" preserveAspectRatio="xMidYMid meet" viewBox="-1 -0.617300000000006 260 228.8673" width="256" height="224.87"><defs><path d="M134.9 175.13L137.8 175.24L140.66 175.38L143.49 175.56L146.28 175.78L149.02 176.03L151.72 176.33L154.38 176.65L156.98 177.02L159.54 177.41L162.04 177.84L164.48 178.31L166.87 178.8L169.2 179.33L171.46 179.88L173.66 180.47L175.79 181.08L177.85 181.72L179.84 182.39L181.75 183.08L183.59 183.8L185.35 184.54L187.02 185.31L188.62 186.1L190.13 186.91L191.54 187.74L192.87 188.6L194.11 189.47L195.25 190.36L196.29 191.27L197.23 192.2L198.07 193.15L198.81 194.11L199.44 195.08L199.96 196.07L200.37 197.07L200.66 198.09L200.84 199.11L200.9 200.15L199.29 201.39L197.66 202.6L196.03 203.77L194.39 204.92L192.73 206.03L191.07 207.12L189.4 208.17L187.72 209.19L186.03 210.17L184.33 211.13L182.62 212.06L180.9 212.95L179.18 213.81L177.44 214.65L175.7 215.45L173.94 216.21L172.18 216.95L170.4 217.66L168.62 218.33L166.83 218.98L165.02 219.59L163.21 220.17L161.39 220.72L159.56 221.23L157.72 221.72L155.87 222.18L154.01 222.6L152.15 222.99L150.27 223.35L148.38 223.68L146.49 223.98L144.58 224.25L142.67 224.48L140.74 224.69L138.81 224.86L136.87 225L134.91 225.11L132.95 225.19L130.98 225.23L129 225.25L126.04 225.23L123.1 225.17L120.2 225.06L117.34 224.92L114.51 224.74L111.72 224.52L108.98 224.26L106.28 223.96L103.62 223.63L101.02 223.27L98.46 222.87L95.96 222.44L93.52 221.97L91.13 221.47L88.8 220.95L86.54 220.39L84.34 219.8L82.21 219.19L80.15 218.54L78.16 217.88L76.25 217.18L74.41 216.46L72.65 215.71L70.98 214.95L69.38 214.16L67.87 213.34L66.46 212.51L65.13 211.66L63.89 210.78L62.75 209.89L61.71 208.99L60.77 208.06L59.93 207.12L59.19 206.16L58.56 205.19L58.04 204.21L57.63 203.21L57.34 202.2L57.16 201.18L57.1 200.15L57.16 199.11L57.34 198.09L57.63 197.07L58.04 196.07L58.56 195.08L59.19 194.11L59.93 193.15L60.77 192.2L61.71 191.27L62.75 190.36L63.89 189.47L65.13 188.6L66.46 187.74L67.87 186.91L69.38 186.1L70.98 185.31L72.65 184.54L74.41 183.8L76.25 183.08L78.16 182.39L80.15 181.72L82.21 181.08L84.34 180.47L86.54 179.88L88.8 179.33L91.13 178.8L93.52 178.31L95.96 177.84L98.46 177.41L101.02 177.02L103.62 176.65L106.28 176.33L108.98 176.03L111.72 175.78L114.51 175.56L117.34 175.38L120.2 175.24L123.1 175.13L126.04 175.07L129 175.05L131.96 175.07L134.9 175.13Z" id="a2PxOUolfr"></path><path d="M134.9 175.13L137.8 175.24L140.66 175.38L143.49 175.56L146.28 175.78L149.02 176.03L151.72 176.33L154.38 176.65L156.98 177.02L159.54 177.41L162.04 177.84L164.48 178.31L166.87 178.8L169.2 179.33L171.46 179.88L173.66 180.47L175.79 181.08L177.85 181.72L179.84 182.39L181.75 183.08L183.59 183.8L185.35 184.54L187.02 185.31L188.62 186.1L190.13 186.91L191.54 187.74L192.87 188.6L194.11 189.47L195.25 190.36L196.29 191.27L197.23 192.2L198.07 193.15L198.81 194.11L199.44 195.08L199.96 196.07L200.37 197.07L200.66 198.09L200.84 199.11L200.9 200.15L199.29 201.39L197.66 202.6L196.03 203.77L194.39 204.92L192.73 206.03L191.07 207.12L189.4 208.17L187.72 209.19L186.03 210.17L184.33 211.13L182.62 212.06L180.9 212.95L179.18 213.81L177.44 214.65L175.7 215.45L173.94 216.21L172.18 216.95L170.4 217.66L168.62 218.33L166.83 218.98L165.02 219.59L163.21 220.17L161.39 220.72L159.56 221.23L157.72 221.72L155.87 222.18L154.01 222.6L152.15 222.99L150.27 223.35L148.38 223.68L146.49 223.98L144.58 224.25L142.67 224.48L140.74 224.69L138.81 224.86L136.87 225L134.91 225.11L132.95 225.19L130.98 225.23L129 225.25L126.04 225.23L123.1 225.17L120.2 225.06L117.34 224.92L114.51 224.74L111.72 224.52L108.98 224.26L106.28 223.96L103.62 223.63L101.02 223.27L98.46 222.87L95.96 222.44L93.52 221.97L91.13 221.47L88.8 220.95L86.54 220.39L84.34 219.8L82.21 219.19L80.15 218.54L78.16 217.88L76.25 217.18L74.41 216.46L72.65 215.71L70.98 214.95L69.38 214.16L67.87 213.34L66.46 212.51L65.13 211.66L63.89 210.78L62.75 209.89L61.71 208.99L60.77 208.06L59.93 207.12L59.19 206.16L58.56 205.19L58.04 204.21L57.63 203.21L57.34 202.2L57.16 201.18L57.1 200.15L57.16 199.11L57.34 198.09L57.63 197.07L58.04 196.07L58.56 195.08L59.19 194.11L59.93 193.15L60.77 192.2L61.71 191.27L62.75 190.36L63.89 189.47L65.13 188.6L66.46 187.74L67.87 186.91L69.38 186.1L70.98 185.31L72.65 184.54L74.41 183.8L76.25 183.08L78.16 182.39L80.15 181.72L82.21 181.08L84.34 180.47L86.54 179.88L88.8 179.33L91.13 178.8L93.52 178.31L95.96 177.84L98.46 177.41L101.02 177.02L103.62 176.65L106.28 176.33L108.98 176.03L111.72 175.78L114.51 175.56L117.34 175.38L120.2 175.24L123.1 175.13L126.04 175.07L129 175.05L131.96 175.07L134.9 175.13Z" id="a1qmX7gTJN"></path><path d="M48.3 131.22L48.7 132.64L48.9 133.35L49.01 134.13L48.85 135.17L48.17 136.11L46.7 136.55L45.39 135.85L44.85 134.81L44.76 133.86L44.8 133.45L45.01 132.73L46.06 129.13L46.9 126.25L47.7 129.09L48.3 131.22Z" id="g5SF7STIpE"></path><path d="M68.13 0.42L68.71 0.47L69.33 0.53L69.99 0.61L70.69 0.72L71.44 0.85L72.23 1.01L73.06 1.2L73.93 1.42L74.85 1.68L75.81 1.97L76.82 2.3L77.87 2.66L78.97 3.07L80.11 3.53L81.29 4.03L82.53 4.57L83.8 5.17L85.13 5.82L86.5 6.53L87.91 7.29L89.37 8.11L90.88 8.98L92.44 9.93L94.05 10.93L95.7 12.01L97.4 13.15L98.13 12.96L98.86 12.77L99.59 12.59L100.33 12.41L101.06 12.24L101.8 12.07L102.54 11.9L103.29 11.75L104.03 11.59L104.78 11.44L105.52 11.3L106.27 11.16L107.02 11.03L107.78 10.9L108.53 10.77L109.28 10.65L110.04 10.54L110.8 10.43L111.55 10.32L112.31 10.22L113.07 10.13L113.83 10.04L114.59 9.95L115.36 9.87L116.12 9.8L116.88 9.73L117.65 9.66L118.41 9.6L119.18 9.54L119.94 9.49L120.71 9.45L121.47 9.41L122.24 9.37L123.01 9.34L123.77 9.31L124.54 9.29L125.3 9.27L126.07 9.26L126.83 9.25L127.6 9.25L128.3 9.25L128.99 9.26L129.69 9.27L130.39 9.28L131.09 9.3L131.78 9.32L132.48 9.35L133.18 9.38L133.87 9.42L134.57 9.46L135.26 9.5L135.95 9.55L136.65 9.6L137.34 9.65L138.03 9.71L138.72 9.78L139.41 9.85L140.1 9.92L140.79 9.99L141.48 10.07L142.16 10.16L142.85 10.25L143.53 10.34L144.21 10.44L144.89 10.54L145.57 10.64L146.25 10.75L146.92 10.87L147.6 10.98L148.27 11.11L148.94 11.23L149.61 11.36L150.28 11.5L150.95 11.63L151.61 11.78L152.27 11.92L152.93 12.07L153.59 12.23L154.25 12.39L154.9 12.55L156.55 11.47L158.15 10.45L159.71 9.49L161.22 8.6L162.68 7.77L164.1 6.99L165.47 6.27L166.8 5.6L168.08 4.99L169.32 4.42L170.52 3.9L171.67 3.43L172.77 3L173.84 2.62L174.86 2.27L175.83 1.96L176.77 1.69L177.66 1.45L178.51 1.24L179.31 1.06L180.08 0.91L180.8 0.79L181.48 0.69L182.12 0.61L182.72 0.55L183.28 0.52L183.8 0.49L184.28 0.48L184.72 0.49L185.12 0.5L185.48 0.52L185.8 0.55L186.09 0.58L186.33 0.61L186.54 0.65L186.7 0.68L186.83 0.71L186.93 0.73L186.98 0.74L187 0.75L187.4 1.79L187.77 2.81L188.11 3.83L188.43 4.83L188.73 5.82L189 6.79L189.24 7.76L189.46 8.71L189.66 9.64L189.84 10.57L190 11.47L190.14 12.37L190.26 13.25L190.36 14.11L190.45 14.96L190.51 15.8L190.56 16.62L190.6 17.42L190.62 18.21L190.63 18.97L190.62 19.73L190.6 20.46L190.57 21.18L190.53 21.88L190.48 22.56L190.42 23.23L190.35 23.87L190.27 24.5L190.18 25.11L190.09 25.7L190 26.27L189.9 26.81L189.79 27.34L189.68 27.85L189.57 28.34L189.46 28.8L189.34 29.25L189.23 29.67L189.11 30.07L189 30.45L189.64 31.1L190.27 31.76L190.88 32.43L191.48 33.11L192.07 33.81L192.65 34.51L193.21 35.22L193.76 35.95L194.29 36.68L194.82 37.43L195.32 38.18L195.82 38.95L196.3 39.73L196.76 40.51L197.21 41.31L197.64 42.12L198.06 42.94L198.47 43.77L198.85 44.61L199.23 45.46L199.58 46.32L199.92 47.2L200.24 48.08L200.55 48.98L200.84 49.88L201.11 50.8L201.36 51.72L201.6 52.66L201.82 53.61L202.02 54.57L202.2 55.54L202.37 56.52L202.52 57.51L202.64 58.51L202.75 59.52L202.84 60.55L202.91 61.58L202.96 62.63L202.99 63.68L203 64.75L203 65.49L202.99 66.23L202.99 66.96L202.98 67.69L202.97 68.42L202.95 69.14L202.93 69.86L202.91 70.58L202.89 71.29L202.86 72L202.83 72.7L202.79 73.41L202.75 74.1L202.71 74.8L202.67 75.49L202.62 76.17L202.57 76.85L202.51 77.53L202.45 78.21L202.39 78.87L202.32 79.54L202.25 80.2L202.17 80.86L202.09 81.51L202.01 82.16L201.92 82.8L201.83 83.44L201.73 84.08L201.63 84.71L201.52 85.34L201.41 85.96L201.3 86.58L201.18 87.19L201.05 87.8L200.92 88.4L200.79 89L200.65 89.6L200.5 90.19L200.35 90.77L200.2 91.35L201.2 91.31L202.23 91.27L203.29 91.23L204.38 91.19L205.49 91.16L206.64 91.14L207.81 91.12L209.01 91.1L210.23 91.09L211.48 91.08L212.75 91.08L214.04 91.09L215.36 91.1L216.69 91.12L218.05 91.15L219.42 91.18L220.82 91.23L222.23 91.28L223.66 91.33L225.1 91.4L226.56 91.48L228.03 91.56L229.52 91.66L231.02 91.76L232.53 91.88L234.05 92L235.58 92.14L237.12 92.29L238.67 92.44L240.22 92.62L241.78 92.8L243.35 92.99L244.92 93.2L246.5 93.43L248.08 93.66L249.66 93.91L251.25 94.17L252.83 94.45L254.42 94.74L256 95.05L255.8 95.95L254.21 95.64L252.62 95.35L251.03 95.07L249.43 94.81L247.84 94.56L246.26 94.33L244.67 94.11L243.09 93.9L241.51 93.71L239.94 93.53L238.38 93.36L236.82 93.2L235.27 93.06L233.73 92.92L232.2 92.8L230.68 92.69L229.17 92.59L227.68 92.49L226.19 92.41L224.73 92.34L223.27 92.27L221.83 92.22L220.41 92.17L219 92.13L217.61 92.09L216.24 92.07L214.89 92.05L213.56 92.03L212.26 92.03L210.97 92.03L209.71 92.03L208.47 92.04L207.25 92.05L206.06 92.07L204.9 92.09L203.76 92.12L202.65 92.15L201.57 92.18L200.52 92.21L199.5 92.25L199.46 92.37L199.42 92.49L199.39 92.61L199.35 92.73L199.31 92.85L199.27 92.96L199.24 93.08L199.2 93.2L199.16 93.32L199.12 93.43L199.09 93.55L199.05 93.67L199.01 93.78L198.97 93.9L198.93 94.01L198.89 94.13L198.85 94.24L198.82 94.36L198.78 94.47L198.74 94.59L198.7 94.7L198.66 94.82L198.62 94.93L198.58 95.04L198.54 95.16L198.5 95.27L198.46 95.38L198.42 95.5L198.37 95.61L198.33 95.72L198.29 95.84L198.25 95.95L198.21 96.06L198.16 96.17L198.12 96.29L198.08 96.4L198.03 96.51L197.99 96.62L197.94 96.74L197.9 96.85L198.89 96.88L199.91 96.92L200.96 96.96L202.05 97.01L203.18 97.06L204.33 97.12L205.51 97.19L206.73 97.26L207.97 97.34L209.24 97.43L210.54 97.52L211.86 97.62L213.21 97.73L214.58 97.85L215.98 97.98L217.39 98.12L218.83 98.26L220.28 98.42L221.76 98.59L223.25 98.76L224.76 98.95L226.28 99.15L227.82 99.36L229.37 99.58L230.94 99.81L232.51 100.06L234.1 100.32L235.69 100.59L237.3 100.87L238.91 101.17L240.52 101.48L242.15 101.8L243.77 102.14L245.4 102.5L247.04 102.87L248.67 103.25L250.31 103.65L251.94 104.07L253.57 104.5L255.2 104.95L254.9 105.85L253.26 105.39L251.62 104.95L249.98 104.53L248.34 104.12L246.7 103.73L245.05 103.36L243.41 103L241.78 102.66L240.15 102.33L238.52 102.01L236.9 101.71L235.29 101.42L233.68 101.15L232.09 100.89L230.51 100.64L228.94 100.41L227.38 100.18L225.83 99.97L224.3 99.77L222.79 99.59L221.29 99.41L219.81 99.25L218.35 99.09L216.91 98.95L215.49 98.81L214.1 98.68L212.73 98.57L211.38 98.46L210.06 98.36L208.76 98.27L207.49 98.19L206.25 98.11L205.04 98.04L203.87 97.98L202.72 97.93L201.6 97.88L200.52 97.84L199.48 97.81L198.47 97.77L197.5 97.75L197.01 98.84L196.48 99.9L195.93 100.95L195.35 101.97L194.73 102.97L194.09 103.96L193.41 104.92L192.7 105.87L191.95 106.79L191.18 107.69L190.36 108.57L189.51 109.43L188.62 110.27L187.7 111.09L186.74 111.88L185.73 112.66L184.69 113.41L183.61 114.14L182.49 114.85L181.33 115.54L180.12 116.2L178.87 116.85L177.58 117.47L176.24 118.07L174.86 118.65L173.43 119.2L171.95 119.73L170.43 120.24L168.86 120.73L167.24 121.19L165.57 121.63L163.85 122.05L162.08 122.45L160.26 122.82L158.38 123.16L156.45 123.49L154.47 123.79L152.44 124.07L150.35 124.32L148.2 124.55L148.58 124.8L148.95 125.07L149.32 125.35L149.7 125.64L150.07 125.94L150.44 126.25L150.81 126.58L151.17 126.92L151.53 127.28L151.89 127.65L152.24 128.03L152.59 128.43L152.93 128.84L153.26 129.27L153.59 129.71L153.92 130.16L154.23 130.64L154.54 131.13L154.84 131.63L155.13 132.15L155.41 132.69L155.68 133.24L155.94 133.81L156.18 134.4L156.42 135.01L156.65 135.63L156.86 136.27L157.06 136.93L157.25 137.61L157.43 138.3L157.58 139.02L157.73 139.75L157.86 140.51L157.97 141.28L158.07 142.07L158.15 142.89L158.22 143.72L158.26 144.58L158.29 145.45L158.3 146.35L158.3 177.35L158.3 177.36L158.31 177.41L158.31 177.47L158.33 177.57L158.34 177.68L158.37 177.82L158.39 177.98L158.43 178.16L158.47 178.36L158.52 178.58L158.58 178.81L158.64 179.06L158.71 179.33L158.8 179.6L158.89 179.89L158.99 180.19L159.11 180.5L159.24 180.82L159.37 181.14L159.53 181.48L159.69 181.81L159.87 182.15L160.06 182.49L160.27 182.84L160.49 183.18L160.73 183.52L160.98 183.86L161.25 184.2L161.54 184.53L161.84 184.86L162.17 185.18L162.51 185.49L162.87 185.79L163.26 186.09L163.66 186.37L164.08 186.63L164.53 186.89L165 187.12L165.49 187.35L166 187.55L166.01 187.56L166.03 187.57L166.07 187.6L166.11 187.63L166.17 187.68L166.24 187.73L166.32 187.79L166.4 187.86L166.49 187.94L166.59 188.03L166.68 188.12L166.79 188.22L166.89 188.32L166.99 188.44L167.09 188.55L167.19 188.67L167.29 188.8L167.38 188.93L167.46 189.06L167.54 189.2L167.61 189.34L167.67 189.48L167.71 189.63L167.75 189.77L167.77 189.92L167.78 190.07L167.77 190.22L167.75 190.37L167.71 190.52L167.65 190.67L167.56 190.82L167.46 190.97L167.33 191.11L167.18 191.26L167 191.4L166.8 191.54L166.57 191.67L166.31 191.8L166.02 191.93L165.7 192.05L165.66 192.05L165.56 192.06L165.39 192.07L165.15 192.08L164.86 192.09L164.52 192.09L164.12 192.09L163.67 192.09L163.18 192.07L162.65 192.05L162.09 192.01L161.49 191.96L160.86 191.9L160.21 191.81L159.53 191.71L158.84 191.59L158.13 191.44L157.41 191.27L156.68 191.08L155.95 190.85L155.22 190.59L154.49 190.31L153.77 189.99L153.06 189.63L152.37 189.24L151.69 188.81L151.04 188.33L150.41 187.82L149.81 187.26L149.25 186.65L148.72 186L148.23 185.29L147.78 184.54L147.38 183.73L147.04 182.86L146.75 181.94L146.51 180.96L146.34 179.92L146.24 178.82L146.2 177.65L146.2 154.05L146.2 154.03L146.21 153.99L146.21 153.91L146.22 153.8L146.23 153.67L146.23 153.51L146.24 153.32L146.25 153.12L146.25 152.89L146.25 152.63L146.25 152.36L146.25 152.07L146.24 151.77L146.23 151.44L146.21 151.11L146.19 150.76L146.16 150.4L146.12 150.02L146.08 149.64L146.03 149.25L145.96 148.85L145.89 148.45L145.81 148.04L145.72 147.63L145.62 147.22L145.51 146.81L145.39 146.4L145.25 145.99L145.1 145.59L144.93 145.19L144.76 144.8L144.56 144.41L144.35 144.03L144.13 143.67L143.88 143.31L143.62 142.97L143.35 142.64L143.05 142.33L142.73 142.03L142.4 141.75L142.4 180.25L142.4 180.27L142.4 180.32L142.41 180.4L142.41 180.51L142.42 180.66L142.43 180.83L142.45 181.02L142.47 181.25L142.49 181.49L142.52 181.76L142.56 182.05L142.59 182.35L142.64 182.68L142.69 183.02L142.75 183.38L142.81 183.75L142.88 184.13L142.96 184.52L143.05 184.93L143.15 185.34L143.26 185.75L143.37 186.18L143.5 186.6L143.63 187.03L143.78 187.46L143.93 187.89L144.1 188.32L144.28 188.74L144.47 189.16L144.68 189.57L144.9 189.98L145.13 190.37L145.37 190.76L145.63 191.13L145.9 191.5L146.19 191.84L146.49 192.17L146.81 192.48L147.15 192.78L147.5 193.05L147.51 193.06L147.52 193.09L147.55 193.14L147.58 193.21L147.62 193.3L147.67 193.4L147.72 193.51L147.78 193.64L147.83 193.78L147.89 193.93L147.95 194.09L148 194.26L148.05 194.43L148.1 194.62L148.14 194.8L148.18 194.99L148.21 195.18L148.22 195.37L148.23 195.56L148.23 195.75L148.21 195.94L148.17 196.12L148.13 196.29L148.06 196.46L147.98 196.62L147.88 196.78L147.75 196.92L147.61 197.05L147.44 197.17L147.25 197.27L147.03 197.36L146.78 197.43L146.51 197.48L146.21 197.52L145.87 197.53L145.51 197.52L145.11 197.49L144.68 197.44L144.21 197.36L143.7 197.25L143.68 197.25L143.6 197.23L143.48 197.21L143.32 197.18L143.12 197.13L142.88 197.08L142.61 197L142.3 196.92L141.96 196.81L141.6 196.69L141.2 196.56L140.79 196.4L140.35 196.22L139.9 196.02L139.43 195.79L138.94 195.55L138.45 195.28L137.95 194.98L137.44 194.65L136.92 194.3L136.41 193.92L135.9 193.51L135.39 193.06L134.89 192.58L134.39 192.07L133.91 191.53L133.44 190.95L132.99 190.33L132.55 189.68L132.14 188.98L131.75 188.25L131.39 187.47L131.05 186.65L130.75 185.79L130.47 184.89L130.24 183.93L130.04 182.94L129.88 181.89L129.77 180.79L129.7 179.65L129.4 140.35L126.2 140.35L125.9 179.65L125.83 180.8L125.72 181.9L125.56 182.95L125.36 183.96L125.13 184.91L124.85 185.82L124.55 186.69L124.21 187.51L123.85 188.29L123.46 189.02L123.05 189.72L122.61 190.38L122.16 190.99L121.69 191.57L121.21 192.12L120.71 192.63L120.21 193.1L119.7 193.55L119.19 193.96L118.67 194.34L118.16 194.69L117.65 195.01L117.15 195.31L116.66 195.58L116.17 195.82L115.7 196.04L115.25 196.24L114.81 196.42L114.4 196.57L114 196.71L113.64 196.83L113.3 196.93L112.99 197.01L112.72 197.08L112.48 197.14L112.28 197.18L112.12 197.21L112 197.23L111.92 197.25L111.9 197.25L111.39 197.35L110.92 197.42L110.49 197.47L110.09 197.5L109.73 197.5L109.39 197.48L109.09 197.45L108.82 197.39L108.57 197.32L108.35 197.23L108.16 197.12L107.99 197L107.85 196.87L107.72 196.73L107.62 196.58L107.54 196.42L107.47 196.25L107.43 196.08L107.39 195.9L107.37 195.71L107.37 195.53L107.38 195.34L107.39 195.15L107.42 194.96L107.46 194.77L107.5 194.59L107.55 194.41L107.6 194.24L107.65 194.07L107.71 193.92L107.77 193.77L107.82 193.63L107.88 193.5L107.93 193.39L107.98 193.29L108.02 193.21L108.05 193.14L108.08 193.09L108.09 193.06L108.1 193.05L108.45 192.78L108.79 192.48L109.11 192.17L109.41 191.84L109.7 191.5L109.97 191.13L110.23 190.76L110.47 190.37L110.7 189.98L110.92 189.57L111.13 189.16L111.32 188.74L111.5 188.32L111.67 187.89L111.82 187.46L111.97 187.03L112.1 186.6L112.23 186.18L112.34 185.75L112.45 185.34L112.55 184.93L112.64 184.52L112.72 184.13L112.79 183.75L112.85 183.38L112.91 183.02L112.96 182.68L113.01 182.35L113.04 182.05L113.08 181.76L113.11 181.49L113.13 181.25L113.15 181.02L113.17 180.83L113.18 180.66L113.19 180.51L113.19 180.4L113.2 180.32L113.2 180.27L113.2 180.25L113.2 141.45L112.87 141.7L112.55 141.97L112.25 142.27L111.98 142.58L111.72 142.91L111.47 143.26L111.25 143.62L111.04 143.99L110.84 144.37L110.67 144.77L110.5 145.17L110.35 145.58L110.21 146L110.09 146.42L109.98 146.84L109.88 147.27L109.79 147.69L109.71 148.11L109.64 148.53L109.57 148.95L109.52 149.36L109.48 149.76L109.44 150.15L109.41 150.54L109.39 150.91L109.37 151.26L109.36 151.61L109.35 151.93L109.35 152.24L109.35 152.53L109.35 152.8L109.35 153.05L109.36 153.27L109.37 153.47L109.37 153.64L109.38 153.78L109.39 153.9L109.39 153.98L109.4 154.03L109.4 154.05L109.4 177.65L109.36 178.82L109.26 179.92L109.09 180.96L108.85 181.94L108.56 182.86L108.22 183.73L107.82 184.54L107.37 185.29L106.88 186L106.35 186.65L105.79 187.26L105.19 187.82L104.56 188.33L103.91 188.81L103.23 189.24L102.54 189.63L101.83 189.99L101.11 190.31L100.38 190.59L99.65 190.85L98.92 191.08L98.19 191.27L97.47 191.44L96.76 191.59L96.07 191.71L95.39 191.81L94.74 191.9L94.11 191.96L93.51 192.01L92.95 192.05L92.42 192.07L91.93 192.09L91.48 192.09L91.08 192.09L90.74 192.09L90.45 192.08L90.21 192.07L90.04 192.06L89.94 192.05L89.9 192.05L89.58 191.93L89.29 191.8L89.03 191.67L88.8 191.54L88.6 191.4L88.42 191.26L88.27 191.11L88.14 190.97L88.04 190.82L87.95 190.67L87.89 190.52L87.85 190.37L87.83 190.22L87.82 190.07L87.83 189.92L87.85 189.77L87.89 189.63L87.93 189.48L87.99 189.34L88.06 189.2L88.14 189.06L88.22 188.93L88.31 188.8L88.41 188.67L88.51 188.55L88.61 188.44L88.71 188.32L88.81 188.22L88.92 188.12L89.01 188.03L89.11 187.94L89.2 187.86L89.28 187.79L89.36 187.73L89.43 187.68L89.49 187.63L89.53 187.6L89.57 187.57L89.59 187.56L89.6 187.55L90.12 187.35L90.62 187.14L91.09 186.91L91.54 186.66L91.97 186.39L92.38 186.12L92.76 185.83L93.13 185.53L93.47 185.22L93.8 184.9L94.11 184.58L94.39 184.24L94.67 183.91L94.92 183.57L95.16 183.22L95.38 182.88L95.58 182.54L95.77 182.19L95.95 181.85L96.11 181.51L96.26 181.18L96.4 180.85L96.52 180.53L96.63 180.22L96.74 179.92L96.83 179.63L96.91 179.35L96.98 179.08L97.04 178.83L97.1 178.59L97.14 178.37L97.18 178.17L97.21 177.99L97.24 177.83L97.26 177.69L97.28 177.57L97.29 177.47L97.29 177.41L97.3 177.36L97.3 177.35L97.3 155.85L95.09 156.31L92.96 156.67L90.92 156.93L88.97 157.1L87.09 157.19L85.3 157.2L83.59 157.13L81.96 156.98L80.4 156.77L78.91 156.5L77.5 156.17L76.16 155.78L74.89 155.35L73.69 154.87L72.56 154.35L71.48 153.79L70.48 153.2L69.53 152.59L68.64 151.95L67.81 151.3L67.04 150.63L66.32 149.96L65.66 149.28L65.04 148.61L64.48 147.94L63.97 147.28L63.5 146.63L63.07 146L62.69 145.4L62.35 144.83L62.06 144.28L61.8 143.78L61.57 143.32L61.38 142.9L61.23 142.54L61.11 142.23L61.01 141.98L60.95 141.8L60.91 141.69L60.9 141.65L60.54 140.74L60.17 139.87L59.79 139.03L59.41 138.22L59.02 137.45L58.63 136.7L58.24 135.99L57.84 135.3L57.44 134.65L57.05 134.02L56.65 133.43L56.26 132.86L55.86 132.31L55.47 131.8L55.09 131.31L54.71 130.85L54.33 130.41L53.96 129.99L53.6 129.6L53.25 129.24L52.91 128.89L52.57 128.57L52.25 128.28L51.94 128L51.64 127.74L51.35 127.51L51.08 127.29L50.82 127.09L50.58 126.92L50.35 126.76L50.15 126.62L49.96 126.49L49.79 126.38L49.64 126.29L49.51 126.22L49.4 126.15L49.31 126.11L49.25 126.08L49.21 126.06L49.2 126.05L48.51 125.56L47.89 125.1L47.34 124.66L46.86 124.24L46.45 123.85L46.09 123.48L45.79 123.13L45.55 122.8L45.36 122.49L45.22 122.21L45.12 121.94L45.07 121.69L45.06 121.46L45.09 121.25L45.16 121.05L45.26 120.87L45.38 120.7L45.54 120.55L45.71 120.41L45.91 120.29L46.13 120.18L46.36 120.08L46.61 119.99L46.86 119.91L47.12 119.84L47.39 119.78L47.65 119.73L47.92 119.69L48.17 119.65L48.43 119.62L48.67 119.6L48.9 119.58L49.11 119.57L49.3 119.56L49.47 119.55L49.62 119.55L49.74 119.55L49.83 119.55L49.88 119.55L49.9 119.55L50.69 119.63L51.47 119.74L52.22 119.88L52.96 120.05L53.67 120.25L54.37 120.48L55.05 120.73L55.7 121L56.34 121.29L56.96 121.61L57.56 121.94L58.14 122.28L58.7 122.64L59.24 123L59.76 123.38L60.26 123.77L60.74 124.16L61.2 124.55L61.64 124.95L62.06 125.35L62.46 125.75L62.84 126.14L63.2 126.53L63.54 126.91L63.86 127.28L64.16 127.64L64.44 127.99L64.7 128.33L64.94 128.64L65.16 128.94L65.36 129.22L65.53 129.48L65.69 129.72L65.82 129.93L65.94 130.11L66.03 130.26L66.11 130.39L66.16 130.48L66.19 130.53L66.2 130.55L66.96 131.8L67.75 132.96L68.55 134.04L69.38 135.04L70.22 135.96L71.09 136.8L71.96 137.58L72.85 138.28L73.75 138.91L74.66 139.49L75.58 139.99L76.5 140.44L77.43 140.84L78.36 141.17L79.29 141.46L80.22 141.69L81.15 141.88L82.08 142.02L83 142.13L83.91 142.19L84.82 142.21L85.71 142.2L86.59 142.16L87.46 142.09L88.31 141.99L89.15 141.87L89.97 141.73L90.76 141.57L91.54 141.39L92.29 141.2L93.01 140.99L93.71 140.78L94.38 140.56L95.01 140.33L95.62 140.11L96.19 139.88L96.72 139.66L97.22 139.45L97.68 139.24L98.1 139.05L98.22 138.49L98.36 137.95L98.5 137.41L98.65 136.89L98.8 136.38L98.97 135.88L99.14 135.39L99.32 134.91L99.5 134.44L99.7 133.99L99.89 133.54L100.1 133.1L100.31 132.68L100.53 132.26L100.75 131.85L100.98 131.45L101.21 131.07L101.45 130.69L101.69 130.32L101.94 129.96L102.19 129.61L102.44 129.27L102.7 128.94L102.97 128.62L103.23 128.3L103.5 128L103.78 127.7L104.05 127.41L104.33 127.13L104.61 126.86L104.89 126.59L105.18 126.34L105.46 126.09L105.75 125.85L106.04 125.61L106.33 125.39L106.62 125.17L106.92 124.95L107.21 124.75L107.5 124.55L105.48 124.32L103.51 124.07L101.58 123.79L99.7 123.49L97.85 123.16L96.05 122.81L94.3 122.44L92.58 122.04L90.91 121.62L89.28 121.18L87.69 120.71L86.14 120.23L84.62 119.71L83.15 119.18L81.72 118.62L80.33 118.05L78.97 117.45L77.65 116.82L76.37 116.18L75.13 115.51L73.92 114.82L72.74 114.12L71.61 113.39L70.51 112.63L69.44 111.86L68.41 111.07L67.41 110.25L66.44 109.42L65.51 108.56L64.61 107.69L63.74 106.79L62.9 105.88L62.1 104.94L61.33 103.99L60.58 103.01L59.87 102.02L59.18 101L58.53 99.97L57.9 98.92L57.3 97.85L56.32 97.88L55.3 97.92L54.24 97.96L53.16 98.01L52.04 98.06L50.9 98.12L49.72 98.19L48.51 98.26L47.28 98.34L46.02 98.43L44.74 98.52L43.43 98.62L42.1 98.73L40.74 98.85L39.37 98.98L37.97 99.11L36.55 99.26L35.11 99.41L33.66 99.58L32.19 99.75L30.7 99.94L29.2 100.13L27.68 100.34L26.15 100.56L24.61 100.79L23.06 101.03L21.5 101.28L19.92 101.55L18.34 101.83L16.76 102.13L15.16 102.43L13.57 102.75L11.96 103.09L10.36 103.44L8.75 103.8L7.14 104.18L5.53 104.57L3.92 104.98L2.31 105.41L0.7 105.85L0.4 104.95L1.99 104.51L3.59 104.08L5.18 103.67L6.78 103.28L8.37 102.9L9.97 102.53L11.56 102.18L13.15 101.84L14.73 101.52L16.31 101.21L17.89 100.91L19.45 100.63L21.01 100.36L22.56 100.1L24.1 99.86L25.63 99.62L27.15 99.4L28.66 99.19L30.15 98.99L31.63 98.8L33.09 98.62L34.53 98.45L35.96 98.29L37.37 98.15L38.76 98.01L40.13 97.88L41.48 97.75L42.81 97.64L44.12 97.54L45.4 97.44L46.66 97.35L47.89 97.27L49.09 97.2L50.27 97.13L51.42 97.07L52.54 97.01L53.63 96.96L54.68 96.92L55.71 96.88L56.7 96.85L56.65 96.74L56.6 96.62L56.54 96.51L56.49 96.4L56.44 96.28L56.39 96.17L56.33 96.05L56.28 95.94L56.23 95.82L56.18 95.71L56.12 95.59L56.07 95.48L56.02 95.36L55.97 95.24L55.92 95.13L55.87 95.01L55.82 94.89L55.76 94.77L55.71 94.66L55.66 94.54L55.61 94.42L55.56 94.3L55.51 94.18L55.46 94.06L55.41 93.94L55.36 93.83L55.31 93.71L55.26 93.59L55.22 93.47L55.17 93.35L55.12 93.23L55.07 93.11L55.02 92.99L54.98 92.87L54.93 92.75L54.88 92.63L54.84 92.51L54.79 92.39L54.75 92.27L54.7 92.15L53.7 92.11L52.68 92.08L51.62 92.05L50.54 92.02L49.43 92L48.3 91.98L47.14 91.96L45.96 91.95L44.75 91.94L43.53 91.94L42.28 91.94L41.01 91.95L39.72 91.97L38.41 91.99L37.08 92.02L35.73 92.06L34.37 92.1L32.99 92.15L31.6 92.21L30.19 92.28L28.77 92.35L27.33 92.44L25.88 92.53L24.42 92.63L22.95 92.75L21.48 92.87L19.99 93L18.49 93.15L16.99 93.3L15.48 93.47L13.96 93.65L12.44 93.84L10.92 94.05L9.39 94.26L7.86 94.49L6.33 94.74L4.8 94.99L3.26 95.26L1.73 95.55L0.2 95.85L0 94.95L1.53 94.65L3.06 94.36L4.59 94.09L6.12 93.83L7.65 93.59L9.18 93.36L10.7 93.14L12.22 92.93L13.74 92.74L15.25 92.56L16.75 92.39L18.25 92.23L19.74 92.08L21.22 91.94L22.7 91.81L24.16 91.7L25.61 91.59L27.05 91.49L28.48 91.4L29.9 91.33L31.3 91.25L32.69 91.19L34.07 91.14L35.42 91.09L36.77 91.05L38.09 91.02L39.4 90.99L40.68 90.98L41.95 90.96L43.2 90.96L44.43 90.96L45.63 90.96L46.81 90.97L47.97 90.98L49.11 91L50.22 91.02L51.31 91.05L52.36 91.08L53.4 91.11L54.4 91.15L54.19 90.57L53.99 89.99L53.8 89.4L53.61 88.8L53.43 88.21L53.25 87.6L53.08 87L52.92 86.39L52.76 85.77L52.61 85.15L52.46 84.53L52.32 83.9L52.19 83.27L52.06 82.63L51.94 81.99L51.82 81.35L51.71 80.7L51.6 80.04L51.5 79.39L51.4 78.73L51.31 78.06L51.22 77.39L51.14 76.72L51.07 76.04L51 75.36L50.93 74.67L50.87 73.98L50.81 73.28L50.76 72.59L50.72 71.88L50.67 71.18L50.64 70.47L50.6 69.75L50.58 69.04L50.55 68.32L50.53 67.59L50.52 66.86L50.51 66.13L50.5 65.39L50.5 64.65L50.51 63.67L50.54 62.7L50.58 61.74L50.64 60.79L50.72 59.85L50.81 58.92L50.92 57.99L51.05 57.08L51.2 56.17L51.36 55.27L51.53 54.38L51.73 53.51L51.93 52.63L52.16 51.77L52.4 50.92L52.65 50.08L52.92 49.24L53.21 48.41L53.51 47.6L53.83 46.79L54.15 45.99L54.5 45.2L54.86 44.41L55.23 43.64L55.62 42.88L56.02 42.12L56.43 41.37L56.86 40.63L57.3 39.9L57.76 39.18L58.22 38.47L58.7 37.77L59.2 37.07L59.7 36.39L60.22 35.71L60.75 35.04L61.3 34.38L61.85 33.73L62.42 33.08L63 32.45L62.9 32.21L62.8 31.93L62.69 31.62L62.57 31.28L62.44 30.9L62.31 30.49L62.18 30.05L62.04 29.57L61.9 29.07L61.77 28.54L61.63 27.97L61.5 27.38L61.38 26.75L61.26 26.1L61.14 25.42L61.04 24.71L60.94 23.98L60.86 23.21L60.78 22.43L60.72 21.61L60.68 20.77L60.65 19.91L60.64 19.02L60.65 18.11L60.67 17.17L60.72 16.21L60.79 15.23L60.88 14.23L61 13.2L61.14 12.16L61.32 11.09L61.52 10.01L61.75 8.9L62.01 7.77L62.3 6.63L62.63 5.47L62.99 4.29L63.39 3.09L63.82 1.88L64.3 0.65L64.32 0.64L64.38 0.63L64.47 0.61L64.61 0.58L64.78 0.54L64.99 0.51L65.24 0.47L65.53 0.44L65.87 0.42L66.24 0.4L66.65 0.38L67.1 0.38L67.6 0.39L68.13 0.42Z" id="a19qTMyqRi"></path><path d="M158.03 58.42L159.17 58.48L160.3 58.56L161.41 58.67L162.5 58.81L163.56 58.98L164.61 59.18L165.63 59.41L166.64 59.68L167.62 59.99L168.57 60.34L169.51 60.73L170.42 61.17L171.3 61.65L172.17 62.17L173 62.75L173.81 63.37L174.6 64.05L175.09 64.67L175.57 65.29L176.03 65.9L176.48 66.5L176.92 67.09L177.35 67.68L177.76 68.27L178.16 68.84L178.55 69.41L178.93 69.98L179.3 70.53L179.65 71.08L179.99 71.63L180.32 72.16L180.63 72.69L180.94 73.22L181.23 73.74L181.51 74.25L181.77 74.75L182.03 75.25L182.27 75.74L182.5 76.23L182.71 76.71L182.92 77.18L183.11 77.64L183.29 78.1L183.45 78.56L183.61 79L183.75 79.44L183.88 79.88L184 80.3L184.1 80.72L184.2 81.14L184.28 81.54L184.35 81.94L184.4 82.34L184.44 82.73L184.48 83.11L184.49 83.48L184.5 83.85L184.45 86.37L184.31 88.76L184.08 91.04L183.75 93.2L183.34 95.24L182.84 97.18L182.25 99.01L181.58 100.73L180.84 102.35L180.01 103.88L179.1 105.31L178.12 106.65L177.06 107.89L175.93 109.06L174.73 110.14L173.47 111.14L172.13 112.06L170.73 112.91L169.27 113.69L167.75 114.4L166.17 115.05L164.53 115.63L162.83 116.16L161.09 116.63L159.29 117.05L157.43 117.42L155.54 117.75L153.59 118.03L151.6 118.27L149.57 118.47L147.5 118.64L145.38 118.78L143.23 118.89L141.05 118.98L138.83 119.04L136.58 119.09L134.3 119.12L131.99 119.14L129.66 119.15L127.3 119.15L124.94 119.14L122.61 119.11L120.3 119.06L118.02 118.99L115.77 118.88L113.55 118.76L111.37 118.6L109.22 118.41L107.1 118.18L105.03 117.92L103 117.63L101.01 117.29L99.06 116.91L97.17 116.49L95.31 116.02L93.51 115.51L91.77 114.94L90.07 114.33L88.43 113.66L86.85 112.94L85.33 112.16L83.87 111.32L82.47 110.42L81.13 109.45L79.87 108.42L78.67 107.33L77.54 106.16L76.48 104.93L75.5 103.62L74.59 102.23L73.76 100.77L73.02 99.23L72.35 97.61L71.76 95.91L71.26 94.12L70.85 92.25L70.52 90.29L70.29 88.23L70.15 86.09L70.1 83.85L70.11 83.3L70.13 82.76L70.16 82.22L70.21 81.68L70.27 81.14L70.34 80.6L70.43 80.07L70.52 79.54L70.64 79.01L70.76 78.48L70.9 77.96L71.04 77.43L71.21 76.91L71.38 76.4L71.57 75.89L71.76 75.37L71.97 74.87L72.2 74.36L72.43 73.86L72.68 73.36L72.93 72.87L73.2 72.38L73.48 71.89L73.77 71.4L74.07 70.92L74.39 70.44L74.71 69.97L75.05 69.5L75.4 69.03L75.75 68.56L76.12 68.1L76.5 67.65L76.89 67.2L77.29 66.75L77.7 66.3L78.12 65.87L78.55 65.43L78.99 65L79.44 64.57L79.9 64.15L80.69 63.47L81.5 62.85L82.34 62.27L83.2 61.74L84.09 61.26L85 60.83L85.93 60.43L86.89 60.08L87.88 59.77L88.88 59.5L89.91 59.26L90.96 59.05L92.03 58.88L93.12 58.74L94.23 58.63L95.36 58.54L96.51 58.48L97.68 58.44L98.87 58.42L100.07 58.43L101.3 58.44L102.54 58.48L103.8 58.53L105.07 58.59L106.36 58.66L107.67 58.74L108.99 58.83L110.32 58.92L111.67 59.02L113.03 59.12L114.41 59.21L115.79 59.31L117.19 59.39L118.61 59.48L120.03 59.55L121.46 59.62L122.91 59.67L124.36 59.71L125.83 59.74L127.3 59.75L128.77 59.74L130.24 59.71L131.69 59.67L133.13 59.62L134.57 59.55L135.99 59.47L137.4 59.39L138.8 59.29L140.18 59.2L141.55 59.1L142.91 59L144.26 58.9L145.59 58.81L146.91 58.72L148.21 58.63L149.49 58.56L150.76 58.49L152.02 58.44L153.26 58.4L154.48 58.37L155.68 58.37L156.86 58.38L158.03 58.42Z" id="a2qkr8vis"></path><path d="M98.55 68.8L99.57 69.12L100.56 69.57L101.51 70.14L102.42 70.83L103.27 71.62L104.08 72.51L104.82 73.5L105.51 74.58L106.13 75.74L106.68 76.97L107.16 78.28L107.56 79.65L107.88 81.08L108.11 82.56L108.25 84.08L108.3 85.65L107.71 87.5L107.11 89.24L106.5 90.88L105.88 92.41L105.26 93.83L104.62 95.15L103.98 96.36L103.33 97.47L102.68 98.48L102.01 99.37L101.34 100.16L100.66 100.85L99.97 101.43L99.27 101.91L98.56 102.28L97.85 102.54L97.13 102.7L96.4 102.75L95.31 102.68L94.25 102.47L93.23 102.14L92.24 101.68L91.29 101.1L90.38 100.41L89.53 99.61L88.72 98.71L87.98 97.73L87.29 96.65L86.67 95.49L86.12 94.26L85.64 92.96L85.24 91.6L84.92 90.18L84.69 88.71L84.55 87.2L84.5 85.65L84.55 84.09L84.69 82.56L84.92 81.08L85.24 79.66L85.64 78.3L86.12 76.99L86.67 75.76L87.29 74.61L87.98 73.54L88.72 72.55L89.53 71.66L90.38 70.87L91.29 70.19L92.24 69.61L93.23 69.16L94.25 68.82L95.31 68.62L96.4 68.55L97.49 68.6L98.55 68.8Z" id="bKqgjAid2"></path><path d="M98.68 74.86L99.65 75.35L100.56 76.01L101.4 76.82L102.16 77.79L102.83 78.88L103.41 80.09L103.87 81.41L104.21 82.82L104.43 84.3L104.5 85.85L103.9 87.67L103.28 89.33L102.66 90.84L102.02 92.18L101.38 93.37L100.73 94.4L100.06 95.27L99.39 95.98L98.71 96.54L98.01 96.93L97.31 97.17L96.6 97.25L95.52 97.15L94.49 96.84L93.51 96.35L92.6 95.69L91.76 94.88L91 93.91L90.33 92.82L89.77 91.61L89.32 90.29L88.98 88.88L88.77 87.4L88.7 85.85L88.77 84.3L88.99 82.82L89.33 81.41L89.79 80.09L90.37 78.88L91.04 77.79L91.8 76.82L92.64 76.01L93.55 75.35L94.52 74.86L95.54 74.55L96.6 74.45L97.66 74.55L98.68 74.86Z" id="l3PWhkSpnS"></path><path d="M162.42 68.8L163.44 69.12L164.42 69.57L165.37 70.14L166.27 70.83L167.13 71.62L167.94 72.51L168.69 73.5L169.38 74.58L170 75.74L170.56 76.97L171.04 78.28L171.45 79.65L171.77 81.08L172.01 82.56L172.15 84.08L172.2 85.65L171.61 87.5L171.01 89.24L170.4 90.88L169.78 92.41L169.16 93.83L168.52 95.15L167.88 96.36L167.23 97.47L166.58 98.48L165.91 99.37L165.24 100.16L164.56 100.85L163.87 101.43L163.17 101.91L162.46 102.28L161.75 102.54L161.03 102.7L160.3 102.75L159.21 102.68L158.15 102.47L157.13 102.14L156.14 101.68L155.19 101.1L154.28 100.41L153.43 99.61L152.62 98.71L151.88 97.73L151.19 96.65L150.57 95.49L150.02 94.26L149.54 92.96L149.14 91.6L148.82 90.18L148.59 88.71L148.45 87.2L148.4 85.65L148.45 84.09L148.59 82.56L148.82 81.08L149.14 79.66L149.54 78.3L150.02 76.99L150.57 75.76L151.19 74.61L151.87 73.54L152.62 72.55L153.43 71.66L154.28 70.87L155.19 70.19L156.14 69.61L157.13 69.16L158.15 68.82L159.21 68.62L160.3 68.55L161.37 68.6L162.42 68.8Z" id="a55UlerH8"></path><path d="M162.51 74.86L163.49 75.35L164.4 76.01L165.24 76.82L166 77.79L166.67 78.88L167.23 80.09L167.68 81.41L168.02 82.82L168.23 84.3L168.3 85.85L167.7 87.67L167.08 89.33L166.46 90.84L165.82 92.18L165.18 93.37L164.53 94.4L163.86 95.27L163.19 95.98L162.51 96.54L161.81 96.93L161.11 97.17L160.4 97.25L159.32 97.15L158.29 96.84L157.31 96.35L156.4 95.69L155.56 94.88L154.8 93.91L154.13 92.82L153.57 91.61L153.12 90.29L152.78 88.88L152.57 87.4L152.5 85.85L152.57 84.3L152.79 82.82L153.13 81.41L153.59 80.09L154.17 78.88L154.84 77.79L155.6 76.82L156.44 76.01L157.35 75.35L158.32 74.86L159.34 74.55L160.4 74.45L161.48 74.55L162.51 74.86Z" id="fSbw4C4sz"></path><path d="M129.6 98.71L130.26 99.66L130.5 100.85L129.82 102.16L129.1 103.1L128.32 103.66L127.5 103.85L126.36 103.62L125.4 102.99L124.74 102.04L124.5 100.85L124.73 99.66L125.36 98.71L126.31 98.08L127.5 97.85L128.64 98.08L129.6 98.71Z" id="cU4sIcnBH"></path><path d="M134 107.25L134.17 107.39L134.31 107.55L134.41 107.73L134.46 107.93L134.46 108.14L134.4 108.35L133.87 109.53L133.14 110.59L132.24 111.5L131.2 112.23L130.05 112.79L128.81 113.13L127.5 113.25L126.19 113.13L124.95 112.79L123.8 112.23L122.76 111.5L121.86 110.59L121.13 109.53L120.6 108.35L120.64 108.08L120.69 107.84L120.76 107.64L120.84 107.47L120.95 107.33L121.07 107.22L121.2 107.15L121.41 107.09L121.62 107.09L121.82 107.14L122 107.24L122.16 107.38L122.3 107.55L122.4 107.75L122.81 108.64L123.36 109.43L124.02 110.09L124.78 110.63L125.62 111.02L126.54 111.27L127.5 111.35L128.46 111.26L129.38 111L130.22 110.59L130.98 110.05L131.64 109.38L132.19 108.61L132.6 107.75L132.7 107.55L132.84 107.38L133 107.24L133.18 107.14L133.38 107.09L133.59 107.09L133.8 107.15L134 107.25Z" id="c2TVx5OmuQ"></path><path d="M53.9 120.95L54.34 121.39L54.5 121.95L54.03 122.56L53.53 123L52.98 123.26L52.4 123.35L51.61 123.24L50.94 122.95L50.47 122.51L50.3 121.95L50.46 121.39L50.9 120.95L51.57 120.66L52.4 120.55L53.23 120.66L53.9 120.95Z" id="b1AfNY0Urh"></path><path d="M59.7 124.15L60.14 124.59L60.3 125.15L59.83 125.76L59.33 126.2L58.78 126.46L58.2 126.55L57.41 126.44L56.74 126.15L56.27 125.71L56.1 125.15L56.26 124.59L56.7 124.15L57.37 123.86L58.2 123.75L59.03 123.86L59.7 124.15Z" id="beNv1wx2C"></path><path d="M63.2 128.31L63.64 128.78L63.8 129.35L63.33 129.96L62.83 130.4L62.28 130.66L61.7 130.75L60.91 130.64L60.24 130.35L59.77 129.91L59.6 129.35L59.76 128.79L60.2 128.35L60.87 128.06L61.7 127.95L62.53 128.01L63.2 128.31Z" id="a6v28jHbLY"></path><path d="M66.4 133.11L66.84 133.58L67 134.15L66.53 134.76L66.03 135.2L65.48 135.46L64.9 135.55L64.11 135.44L63.44 135.15L62.97 134.71L62.8 134.15L62.96 133.59L63.4 133.15L64.07 132.86L64.9 132.75L65.73 132.81L66.4 133.11Z" id="bepbVvL5Q"></path><path d="M69.9 137.55L70.34 137.99L70.5 138.55L70.03 139.16L69.53 139.6L68.98 139.86L68.4 139.95L67.61 139.84L66.94 139.55L66.47 139.11L66.3 138.55L66.46 137.99L66.9 137.55L67.57 137.26L68.4 137.15L69.23 137.26L69.9 137.55Z" id="a2WDcKs8aM"></path><path d="M74.7 141.41L75.14 141.88L75.3 142.45L74.83 143.06L74.32 143.5L73.78 143.76L73.2 143.85L72.41 143.74L71.74 143.45L71.27 143.01L71.1 142.45L71.26 141.89L71.7 141.45L72.37 141.16L73.2 141.05L74.03 141.11L74.7 141.41Z" id="f2VlnyKMjl"></path><path d="M81.4 143.95L81.84 144.39L82 144.95L81.53 145.56L81.03 146L80.48 146.26L79.9 146.35L79.11 146.24L78.44 145.95L77.97 145.51L77.8 144.95L77.96 144.39L78.4 143.95L79.07 143.66L79.9 143.55L80.73 143.66L81.4 143.95Z" id="e2vXENtiW"></path><path d="M88.1 143.95L88.54 144.39L88.7 144.95L88.23 145.56L87.73 146L87.18 146.26L86.6 146.35L85.81 146.24L85.14 145.95L84.67 145.51L84.5 144.95L84.66 144.39L85.1 143.95L85.77 143.66L86.6 143.55L87.43 143.66L88.1 143.95Z" id="cTAqPeGMG"></path><path d="M94.86 142.85L95.33 143.29L95.5 143.85L95.03 144.46L94.53 144.9L93.98 145.16L93.4 145.25L92.61 145.14L91.94 144.85L91.47 144.41L91.3 143.85L91.46 143.29L91.9 142.85L92.57 142.56L93.4 142.45L94.19 142.56L94.86 142.85Z" id="d6L0YUQT7d"></path></defs><g><g><use xlink:href="#a2PxOUolfr" opacity="1" fill="#9edcf2" fill-opacity="1"></use><g><use xlink:href="#a2PxOUolfr" opacity="1" fill-opacity="0" stroke="#000000" stroke-width="1" stroke-opacity="0"></use></g></g><g><use xlink:href="#a1qmX7gTJN" opacity="1" fill="#7dbce7" fill-opacity="1"></use><g><use xlink:href="#a1qmX7gTJN" opacity="1" fill-opacity="0" stroke="#000000" stroke-width="1" stroke-opacity="0"></use></g></g><g><use xlink:href="#g5SF7STIpE" opacity="1" fill="#9edcf2" fill-opacity="1"></use><g><use xlink:href="#g5SF7STIpE" opacity="1" fill-opacity="0" stroke="#000000" stroke-width="1" stroke-opacity="0"></use></g></g><g><use xlink:href="#a19qTMyqRi" opacity="1" fill="#010101" fill-opacity="1"></use><g><use xlink:href="#a19qTMyqRi" opacity="1" fill-opacity="0" stroke="#000000" stroke-width="1" stroke-opacity="0"></use></g></g><g><use xlink:href="#a2qkr8vis" opacity="1" fill="#f5ccb3" fill-opacity="1"></use><g><use xlink:href="#a2qkr8vis" opacity="1" fill-opacity="0" stroke="#000000" stroke-width="1" stroke-opacity="0"></use></g></g><g><use xlink:href="#bKqgjAid2" opacity="1" fill="#ffffff" fill-opacity="1"></use><g><use xlink:href="#bKqgjAid2" opacity="1" fill-opacity="0" stroke="#000000" stroke-width="1" stroke-opacity="0"></use></g></g><g><use xlink:href="#l3PWhkSpnS" opacity="1" fill="#af5c51" fill-opacity="1"></use><g><use xlink:href="#l3PWhkSpnS" opacity="1" fill-opacity="0" stroke="#000000" stroke-width="1" stroke-opacity="0"></use></g></g><g><use xlink:href="#a55UlerH8" opacity="1" fill="#ffffff" fill-opacity="1"></use><g><use xlink:href="#a55UlerH8" opacity="1" fill-opacity="0" stroke="#000000" stroke-width="1" stroke-opacity="0"></use></g></g><g><use xlink:href="#fSbw4C4sz" opacity="1" fill="#af5c51" fill-opacity="1"></use><g><use xlink:href="#fSbw4C4sz" opacity="1" fill-opacity="0" stroke="#000000" stroke-width="1" stroke-opacity="0"></use></g></g><g><use xlink:href="#cU4sIcnBH" opacity="1" fill="#af5c51" fill-opacity="1"></use><g><use xlink:href="#cU4sIcnBH" opacity="1" fill-opacity="0" stroke="#000000" stroke-width="1" stroke-opacity="0"></use></g></g><g><use xlink:href="#c2TVx5OmuQ" opacity="1" fill="#af5c51" fill-opacity="1"></use><g><use xlink:href="#c2TVx5OmuQ" opacity="1" fill-opacity="0" stroke="#000000" stroke-width="1" stroke-opacity="0"></use></g></g><g><use xlink:href="#b1AfNY0Urh" opacity="1" fill="#c4e5d9" fill-opacity="1"></use><g><use xlink:href="#b1AfNY0Urh" opacity="1" fill-opacity="0" stroke="#000000" stroke-width="1" stroke-opacity="0"></use></g></g><g><use xlink:href="#beNv1wx2C" opacity="1" fill="#c4e5d9" fill-opacity="1"></use><g><use xlink:href="#beNv1wx2C" opacity="1" fill-opacity="0" stroke="#000000" stroke-width="1" stroke-opacity="0"></use></g></g><g><use xlink:href="#a6v28jHbLY" opacity="1" fill="#c4e5d9" fill-opacity="1"></use><g><use xlink:href="#a6v28jHbLY" opacity="1" fill-opacity="0" stroke="#000000" stroke-width="1" stroke-opacity="0"></use></g></g><g><use xlink:href="#bepbVvL5Q" opacity="1" fill="#c4e5d9" fill-opacity="1"></use><g><use xlink:href="#bepbVvL5Q" opacity="1" fill-opacity="0" stroke="#000000" stroke-width="1" stroke-opacity="0"></use></g></g><g><use xlink:href="#a2WDcKs8aM" opacity="1" fill="#c4e5d9" fill-opacity="1"></use><g><use xlink:href="#a2WDcKs8aM" opacity="1" fill-opacity="0" stroke="#000000" stroke-width="1" stroke-opacity="0"></use></g></g><g><use xlink:href="#f2VlnyKMjl" opacity="1" fill="#c4e5d9" fill-opacity="1"></use><g><use xlink:href="#f2VlnyKMjl" opacity="1" fill-opacity="0" stroke="#000000" stroke-width="1" stroke-opacity="0"></use></g></g><g><use xlink:href="#e2vXENtiW" opacity="1" fill="#c4e5d9" fill-opacity="1"></use><g><use xlink:href="#e2vXENtiW" opacity="1" fill-opacity="0" stroke="#000000" stroke-width="1" stroke-opacity="0"></use></g></g><g><use xlink:href="#cTAqPeGMG" opacity="1" fill="#c4e5d9" fill-opacity="1"></use><g><use xlink:href="#cTAqPeGMG" opacity="1" fill-opacity="0" stroke="#000000" stroke-width="1" stroke-opacity="0"></use></g></g><g><use xlink:href="#d6L0YUQT7d" opacity="1" fill="#c4e5d9" fill-opacity="1"></use><g><use xlink:href="#d6L0YUQT7d" opacity="1" fill-opacity="0" stroke="#000000" stroke-width="1" stroke-opacity="0"></use></g></g></g></svg>