<svg xmlns="http://www.w3.org/2000/svg" xmlns:xlink="http://www.w3.org/1999/xlink" version="1.1" style="enable-background:new 0 0 364.441 364.441;" xml:space="preserve" width="364" height="252"><rect id="backgroundrect" width="100%" height="100%" x="0" y="0" fill="none" stroke="none" class="" style=""/>
















<g class="currentLayer" style=""><title>Layer 1</title><g id="svg_1" class="">
	<path style="fill:#C3C6C8;" d="M356.941,32.50000000000017 c0,-13.75 -11.25,-25 -25,-25 H32.5 c-13.75,0 -25,11.25 -25,25 v187.168 c0,13.75 11.25,25 25,25 h299.441 c13.75,0 25,-11.25 25,-25 V32.50000000000017 z" id="svg_2"/>
	<path style="fill:#E8E8E8;" d="M182.221,100.79600000000016 L7.5,212.56700000000018 v7.1 c0,13.75 11.25,25 25,25 h299.441 c13.75,0 25,-11.25 25,-25 v-7.1 L182.221,100.79600000000016 z" id="svg_3"/>
	<path style="fill:#E8E8E8;" d="M182.221,151.37200000000016 l174.72,-111.773 v-7.1 c0,-13.75 -11.25,-25 -25,-25 H32.5 c-13.75,0 -25,11.25 -25,25 v7.1 L182.221,151.37200000000016 z" id="svg_4"/>
	<path style="fill:#005CB9;" d="M355.599,24.45800000000017 L182.221,135.37200000000016 L8.843,24.45800000000017 C7.977,26.986000000000175 7.5,29.689000000000163 7.5,32.50000000000017 v7.1 l174.721,111.772 l174.72,-111.773 v-7.1 C356.941,29.689000000000163 356.465,26.986000000000175 355.599,24.45800000000017 z" id="svg_5"/>
	<path style="fill:#071C2C;" d="M331.941,1.705302563706658e-13 H32.5 c-17.92,0 -32.5,14.58 -32.5,32.5 v187.168 c0,17.92 14.58,32.5 32.5,32.5 h299.441 c17.921,0 32.5,-14.58 32.5,-32.5 V32.50000000000017 C364.441,14.579000000000164 349.862,1.705302563706658e-13 331.941,1.705302563706658e-13 zM15,53.30100000000017 l113.773,72.783 L15,198.86700000000016 V53.30100000000017 zM349.441,219.66800000000018 c0,9.649000000000001 -7.851,17.5 -17.5,17.5 H32.5 c-9.649000000000001,0 -17.5,-7.851 -17.5,-17.5 v-2.9939999999999998 l127.69,-81.687 l35.488,22.703 c1.232,0.788 2.637,1.182 4.042,1.182 s2.81,-0.3940000000000002 4.042,-1.182 l35.487,-22.702 l127.691,81.686 v2.9939999999999998 H349.441 zM349.441,198.86600000000016 L235.668,126.08300000000017 l113.773,-72.783 V198.86600000000016 zM349.441,35.49400000000017 l-167.22,106.974 L15,35.49400000000017 v-2.9939999999999998 c0,-9.649000000000001 7.851,-17.5 17.5,-17.5 h299.441 c9.649000000000001,0 17.5,7.851 17.5,17.5 V35.49400000000017 z" id="svg_6"/>
</g><g id="svg_7" class="">
</g><g id="svg_8" class="">
</g><g id="svg_9" class="">
</g><g id="svg_10" class="">
</g><g id="svg_11" class="">
</g><g id="svg_12" class="">
</g><g id="svg_13" class="">
</g><g id="svg_14" class="">
</g><g id="svg_15" class="">
</g><g id="svg_16" class="">
</g><g id="svg_17" class="">
</g><g id="svg_18" class="">
</g><g id="svg_19" class="">
</g><g id="svg_20" class="">
</g><g id="svg_21" class="">
</g></g></svg>